<mxfile host="app.diagrams.net" agent="Mozilla/5.0 (Macintosh; Intel Mac OS X 10_15_7) AppleWebKit/537.36 (KHTML, like Gecko) Chrome/139.0.0.0 Safari/537.36" scale="1" border="0" version="28.1.2">
  <diagram id="ScJkvceM8QA9Dt3IaeRy" name="FSI Fraud Detection Architecture">
    <mxGraphModel dx="1643" dy="980" grid="1" gridSize="10" guides="1" tooltips="1" connect="1" arrows="1" fold="1" page="1" pageScale="1" pageWidth="100" pageHeight="600" background="none" math="0" shadow="0">
      <root>
        <mxCell id="0" />
        <mxCell id="1" parent="0" />
        <mxCell id="R8QV-5auwyjtB_2v4dsR-1" value="25-85" style="text;strokeColor=none;align=center;fillColor=none;html=1;verticalAlign=middle;whiteSpace=wrap;rounded=0;" parent="1" vertex="1">
          <mxGeometry x="398" y="479" width="60" height="30" as="geometry" />
        </mxCell>
        <mxCell id="slYM4_aNco01T4_GuQjY-1" value="&lt;b&gt;TRANSACTION INPUT&lt;/b&gt;&lt;div&gt;Customer&lt;/div&gt;&lt;div&gt;&lt;br&gt;&lt;/div&gt;&lt;div&gt;&lt;br&gt;&lt;/div&gt;" style="rounded=1;whiteSpace=wrap;html=1;absoluteArcSize=1;arcSize=14;strokeWidth=2;fillColor=#d5e8d4;strokeColor=#82b366;" parent="1" vertex="1">
          <mxGeometry x="314" y="80" width="165" height="100" as="geometry" />
        </mxCell>
        <mxCell id="sSi7mY93e1Lg2QYT5dff-1" style="edgeStyle=orthogonalEdgeStyle;rounded=0;orthogonalLoop=1;jettySize=auto;html=1;" parent="1" source="MBH7ge44Bl-OyHVlxMLG-3" edge="1">
          <mxGeometry relative="1" as="geometry">
            <mxPoint x="548" y="281" as="targetPoint" />
          </mxGeometry>
        </mxCell>
        <mxCell id="vPlyKT3PNWQT97jQsQxh-1" style="edgeStyle=orthogonalEdgeStyle;rounded=0;orthogonalLoop=1;jettySize=auto;html=1;" parent="1" edge="1">
          <mxGeometry relative="1" as="geometry">
            <mxPoint x="400" y="359" as="targetPoint" />
            <mxPoint x="402.5" y="331" as="sourcePoint" />
          </mxGeometry>
        </mxCell>
        <mxCell id="MBH7ge44Bl-OyHVlxMLG-3" value="&lt;div&gt;&lt;b&gt;STAGE 1: RULES (ML)&lt;/b&gt;&lt;/div&gt;&lt;div&gt;Pattern matching and Risk scoring&lt;/div&gt;" style="rounded=1;whiteSpace=wrap;html=1;absoluteArcSize=1;arcSize=14;strokeWidth=2;fillColor=#fff2cc;strokeColor=#d6b656;gradientColor=#ffd966;" parent="1" vertex="1">
          <mxGeometry x="318" y="231" width="165" height="100" as="geometry" />
        </mxCell>
        <mxCell id="EmIiZ1XJYtXeR7EbjNJI-1" value="" style="edgeStyle=orthogonalEdgeStyle;rounded=0;orthogonalLoop=1;jettySize=auto;html=1;" parent="1" source="C-OVQCLlEjbg7HeaUm4_-1" target="MBH7ge44Bl-OyHVlxMLG-3" edge="1">
          <mxGeometry relative="1" as="geometry" />
        </mxCell>
        <mxCell id="C-OVQCLlEjbg7HeaUm4_-1" value="&lt;div&gt;&lt;span style=&quot;background-color: transparent; color: light-dark(rgb(0, 0, 0), rgb(255, 255, 255));&quot;&gt;&lt;b&gt;ML RISK SCORING&lt;/b&gt;&lt;/span&gt;&lt;/div&gt;&lt;div&gt;&lt;span style=&quot;background-color: transparent; color: light-dark(rgb(0, 0, 0), rgb(255, 255, 255));&quot;&gt;&lt;br&gt;&lt;/span&gt;&lt;/div&gt;&lt;div&gt;&lt;span style=&quot;background-color: transparent; color: light-dark(rgb(0, 0, 0), rgb(255, 255, 255));&quot;&gt;Azure Databricks via MLflow&lt;/span&gt;&lt;/div&gt;&lt;div&gt;&lt;span style=&quot;background-color: transparent; color: light-dark(rgb(0, 0, 0), rgb(255, 255, 255));&quot;&gt;&lt;br&gt;&lt;/span&gt;&lt;/div&gt;&lt;div&gt;&lt;span style=&quot;background-color: transparent; color: light-dark(rgb(0, 0, 0), rgb(255, 255, 255));&quot;&gt;Real-time Inference&lt;/span&gt;&lt;/div&gt;" style="rounded=1;whiteSpace=wrap;html=1;absoluteArcSize=1;arcSize=14;strokeWidth=2;fillColor=#f8cecc;strokeColor=#b85450;" parent="1" vertex="1">
          <mxGeometry x="548" y="231" width="165" height="100" as="geometry" />
        </mxCell>
        <mxCell id="5UP6-6ZE6yTBHR8TQeoK-1" value="&lt;div&gt;&lt;br&gt;&lt;/div&gt;" style="edgeStyle=orthogonalEdgeStyle;rounded=0;orthogonalLoop=1;jettySize=auto;html=1;exitX=0.5;exitY=1;exitDx=0;exitDy=0;exitPerimeter=0;" parent="1" source="vPlyKT3PNWQT97jQsQxh-2" edge="1">
          <mxGeometry relative="1" as="geometry">
            <mxPoint x="403" y="509" as="targetPoint" />
            <mxPoint x="598" y="480" as="sourcePoint" />
          </mxGeometry>
        </mxCell>
        <mxCell id="vPlyKT3PNWQT97jQsQxh-2" value="&lt;b&gt;&lt;font style=&quot;font-size: 7px;&quot;&gt;RISK SCORE DECISION&lt;/font&gt;&lt;/b&gt;&lt;div&gt;&lt;font style=&quot;font-size: 7px;&quot;&gt;&amp;lt;25: Auto-Approve&lt;/font&gt;&lt;/div&gt;&lt;div&gt;&lt;font style=&quot;font-size: 7px;&quot;&gt;25-85: AI Analysis&lt;/font&gt;&lt;/div&gt;&lt;div&gt;&lt;font style=&quot;font-size: 7px;&quot;&gt;&amp;gt;85: Auto-block&lt;/font&gt;&lt;/div&gt;" style="strokeWidth=2;html=1;shape=mxgraph.flowchart.decision;whiteSpace=wrap;fillColor=#ffcd28;gradientColor=#ffa500;strokeColor=#d79b00;" parent="1" vertex="1">
          <mxGeometry x="338" y="359" width="130" height="120" as="geometry" />
        </mxCell>
        <mxCell id="EmopkaU2RSPjqMWsOi13-1" style="edgeStyle=orthogonalEdgeStyle;rounded=0;orthogonalLoop=1;jettySize=auto;html=1;" parent="1" source="klOflGpT9RTQtaE125UG-3" edge="1">
          <mxGeometry relative="1" as="geometry">
            <mxPoint x="403" y="639" as="targetPoint" />
          </mxGeometry>
        </mxCell>
        <mxCell id="klOflGpT9RTQtaE125UG-3" value="&lt;div&gt;&lt;span style=&quot;background-color: transparent; color: light-dark(rgb(0, 0, 0), rgb(255, 255, 255));&quot;&gt;&lt;b&gt;STAGE 2: AI Analysis&lt;/b&gt;&lt;/span&gt;&lt;/div&gt;&lt;div&gt;&lt;span style=&quot;background-color: transparent; color: light-dark(rgb(0, 0, 0), rgb(255, 255, 255));&quot;&gt;&lt;font style=&quot;font-size: 10px;&quot;&gt;Vector Search &amp;amp; Agent Reasoning&lt;/font&gt;&lt;/span&gt;&lt;/div&gt;" style="rounded=1;whiteSpace=wrap;html=1;absoluteArcSize=1;arcSize=14;strokeWidth=2;fillColor=#cce5ff;strokeColor=#36393d;" parent="1" vertex="1">
          <mxGeometry x="320.5" y="509" width="165" height="100" as="geometry" />
        </mxCell>
        <mxCell id="AGjH78IU93GY3r5XVCd2-1" style="edgeStyle=orthogonalEdgeStyle;rounded=0;orthogonalLoop=1;jettySize=auto;html=1;exitX=0.5;exitY=1;exitDx=0;exitDy=0;" parent="1" source="EmopkaU2RSPjqMWsOi13-2" edge="1">
          <mxGeometry relative="1" as="geometry">
            <mxPoint x="68" y="779" as="targetPoint" />
            <Array as="points">
              <mxPoint x="403" y="759" />
              <mxPoint x="68" y="759" />
            </Array>
          </mxGeometry>
        </mxCell>
        <mxCell id="AGjH78IU93GY3r5XVCd2-3" style="edgeStyle=orthogonalEdgeStyle;rounded=0;orthogonalLoop=1;jettySize=auto;html=1;" parent="1" edge="1">
          <mxGeometry relative="1" as="geometry">
            <mxPoint x="420" y="779" as="targetPoint" />
            <mxPoint x="420" y="759" as="sourcePoint" />
            <Array as="points">
              <mxPoint x="420" y="759" />
              <mxPoint x="420" y="759" />
            </Array>
          </mxGeometry>
        </mxCell>
        <mxCell id="EmopkaU2RSPjqMWsOi13-2" value="&lt;div&gt;&lt;span style=&quot;background-color: transparent; color: light-dark(rgb(0, 0, 0), rgb(255, 255, 255));&quot;&gt;&lt;b&gt;PRIMARY FRAUD AGENT&lt;/b&gt;&lt;/span&gt;&lt;/div&gt;&lt;div&gt;&lt;span style=&quot;background-color: transparent; color: light-dark(rgb(0, 0, 0), rgb(255, 255, 255));&quot;&gt;&lt;font style=&quot;font-size: 10px;&quot;&gt;Strategic tool selection &amp;amp; reasoning&lt;/font&gt;&lt;/span&gt;&lt;/div&gt;" style="rounded=1;whiteSpace=wrap;html=1;absoluteArcSize=1;arcSize=14;strokeWidth=2;fillColor=#cce5ff;strokeColor=#36393d;" parent="1" vertex="1">
          <mxGeometry x="325" y="640" width="165" height="100" as="geometry" />
        </mxCell>
        <mxCell id="YBAdvz8geo6F_Ru8uHHC-1" value="GPT-4o" style="rounded=1;whiteSpace=wrap;html=1;" parent="1" vertex="1">
          <mxGeometry x="326.5" y="718" width="61.5" height="20" as="geometry" />
        </mxCell>
        <mxCell id="AGjH78IU93GY3r5XVCd2-2" style="edgeStyle=orthogonalEdgeStyle;rounded=0;orthogonalLoop=1;jettySize=auto;html=1;exitX=0.5;exitY=1;exitDx=0;exitDy=0;" parent="1" source="EmopkaU2RSPjqMWsOi13-2" edge="1">
          <mxGeometry relative="1" as="geometry">
            <mxPoint x="588" y="779" as="targetPoint" />
            <mxPoint x="447.75" y="759" as="sourcePoint" />
            <Array as="points">
              <mxPoint x="403" y="759" />
              <mxPoint x="588" y="759" />
            </Array>
          </mxGeometry>
        </mxCell>
        <mxCell id="AGjH78IU93GY3r5XVCd2-5" style="edgeStyle=orthogonalEdgeStyle;rounded=0;orthogonalLoop=1;jettySize=auto;html=1;exitX=0.5;exitY=1;exitDx=0;exitDy=0;" parent="1" edge="1">
          <mxGeometry relative="1" as="geometry">
            <mxPoint x="748" y="779" as="targetPoint" />
            <mxPoint x="528" y="759" as="sourcePoint" />
            <Array as="points">
              <mxPoint x="748" y="759" />
            </Array>
          </mxGeometry>
        </mxCell>
        <mxCell id="AGjH78IU93GY3r5XVCd2-6" value="&lt;div&gt;&lt;span style=&quot;background-color: transparent; color: light-dark(rgb(0, 0, 0), rgb(255, 255, 255));&quot;&gt;&lt;b&gt;ANALYZE TRANSACTION PATTERNS&lt;/b&gt;&lt;/span&gt;&lt;/div&gt;&lt;div&gt;&lt;span style=&quot;font-size: 10px; background-color: transparent; color: light-dark(rgb(0, 0, 0), rgb(255, 255, 255));&quot;&gt;&lt;b&gt;Customer baseline Analysis&lt;/b&gt;&lt;/span&gt;&lt;/div&gt;" style="rounded=1;whiteSpace=wrap;html=1;absoluteArcSize=1;arcSize=14;strokeWidth=2;strokeColor=light-dark(#d324eb, #ededed);fillColor=light-dark(#FAD4FF,#EDEDED);" parent="1" vertex="1">
          <mxGeometry x="-12" y="779" width="165" height="100" as="geometry" />
        </mxCell>
        <mxCell id="AGjH78IU93GY3r5XVCd2-7" value="&lt;div&gt;&lt;span style=&quot;background-color: transparent; color: light-dark(rgb(0, 0, 0), rgb(255, 255, 255));&quot;&gt;&lt;b&gt;SEARCH SIMILAR TRANSACTION&lt;/b&gt;&lt;/span&gt;&lt;/div&gt;&lt;div&gt;&lt;span style=&quot;font-size: 10px; background-color: transparent; color: light-dark(rgb(0, 0, 0), rgb(255, 255, 255));&quot;&gt;&lt;b&gt;Pattern Validation&lt;/b&gt;&lt;/span&gt;&lt;/div&gt;" style="rounded=1;whiteSpace=wrap;html=1;absoluteArcSize=1;arcSize=14;strokeWidth=2;fillColor=#cce5ff;strokeColor=#36393d;" parent="1" vertex="1">
          <mxGeometry x="173" y="779" width="165" height="100" as="geometry" />
        </mxCell>
        <mxCell id="QFagDasvhe7zGXmV0Cmf-1" value="&lt;font style=&quot;font-size: 9px;&quot;&gt;MongoDB Vector Search&lt;/font&gt;" style="rounded=1;whiteSpace=wrap;html=1;" parent="1" vertex="1">
          <mxGeometry x="179.75" y="854" width="147.25" height="20" as="geometry" />
        </mxCell>
        <mxCell id="rdsmS_tetdR9iGBarKxG-1" style="edgeStyle=orthogonalEdgeStyle;rounded=0;orthogonalLoop=1;jettySize=auto;html=1;exitX=0.5;exitY=1;exitDx=0;exitDy=0;exitPerimeter=0;" parent="1" source="_zV5KfGl_YbCNHnqrAIW-1" edge="1">
          <mxGeometry relative="1" as="geometry">
            <mxPoint x="188" y="989" as="targetPoint" />
            <mxPoint x="250.53846153846143" y="909" as="sourcePoint" />
            <Array as="points">
              <mxPoint x="421" y="949" />
              <mxPoint x="189" y="949" />
              <mxPoint x="189" y="989" />
            </Array>
          </mxGeometry>
        </mxCell>
        <mxCell id="0LBBUaoQF5_cExZpgBRw-2" style="edgeStyle=orthogonalEdgeStyle;rounded=0;orthogonalLoop=1;jettySize=auto;html=1;" parent="1" source="_zV5KfGl_YbCNHnqrAIW-1" edge="1">
          <mxGeometry relative="1" as="geometry">
            <mxPoint x="608" y="989" as="targetPoint" />
            <Array as="points">
              <mxPoint x="421" y="949" />
              <mxPoint x="608" y="949" />
            </Array>
          </mxGeometry>
        </mxCell>
        <mxCell id="_zV5KfGl_YbCNHnqrAIW-1" value="&lt;div&gt;&lt;font style=&quot;font-size: 7px;&quot;&gt;&lt;b&gt;&lt;br&gt;&lt;/b&gt;&lt;/font&gt;&lt;/div&gt;&lt;div&gt;&lt;font style=&quot;font-size: 7px;&quot;&gt;&lt;b&gt;AI DECISION SYNTHESIS&lt;/b&gt;&lt;/font&gt;&lt;/div&gt;&lt;div&gt;&lt;font style=&quot;font-size: 7px;&quot;&gt;&amp;lt;40: Approve&lt;/font&gt;&lt;/div&gt;&lt;div&gt;&lt;font style=&quot;font-size: 7px;&quot;&gt;40-65: Investigate&lt;/font&gt;&lt;/div&gt;&lt;div&gt;&lt;font style=&quot;font-size: 7px;&quot;&gt;65-85: Escalate&lt;/font&gt;&lt;/div&gt;&lt;div&gt;&lt;font style=&quot;font-size: 7px;&quot;&gt;&amp;gt;85: Block&lt;/font&gt;&lt;/div&gt;" style="strokeWidth=2;html=1;shape=mxgraph.flowchart.decision;whiteSpace=wrap;fillColor=#ffcd28;gradientColor=#ffa500;strokeColor=#d79b00;" parent="1" vertex="1">
          <mxGeometry x="355.5" y="779" width="130" height="120" as="geometry" />
        </mxCell>
        <mxCell id="xA6HaAWJJ3w5_y60uWcd-1" value="&lt;div&gt;&lt;span style=&quot;background-color: transparent; color: light-dark(rgb(0, 0, 0), rgb(255, 255, 255));&quot;&gt;&lt;b&gt;CALCULAT NETWORK RISK&lt;/b&gt;&lt;/span&gt;&lt;/div&gt;&lt;div&gt;&lt;span style=&quot;background-color: transparent; color: light-dark(rgb(0, 0, 0), rgb(255, 255, 255)); font-size: 10px;&quot;&gt;Fraud ring detection&lt;/span&gt;&lt;/div&gt;&lt;div&gt;&lt;div&gt;&lt;span style=&quot;background-color: transparent; color: light-dark(rgb(0, 0, 0), rgb(255, 255, 255)); font-size: 10px;&quot;&gt;&lt;b&gt;Anomaly Investigation&lt;/b&gt;&lt;/span&gt;&lt;/div&gt;&lt;/div&gt;&lt;div&gt;&lt;span style=&quot;background-color: transparent; color: light-dark(rgb(0, 0, 0), rgb(255, 255, 255)); font-size: 10px;&quot;&gt;&lt;br&gt;&lt;/span&gt;&lt;/div&gt;" style="rounded=1;whiteSpace=wrap;html=1;absoluteArcSize=1;arcSize=14;strokeWidth=2;fillColor=#fff2cc;gradientColor=#ffd966;strokeColor=#d6b656;" parent="1" vertex="1">
          <mxGeometry x="498" y="779" width="165" height="100" as="geometry" />
        </mxCell>
        <mxCell id="peN7S1bACBPS1jwIUG3S-3" style="edgeStyle=orthogonalEdgeStyle;rounded=0;orthogonalLoop=1;jettySize=auto;html=1;" parent="1" edge="1">
          <mxGeometry relative="1" as="geometry">
            <mxPoint x="250" y="779" as="targetPoint" />
            <mxPoint x="250" y="759" as="sourcePoint" />
          </mxGeometry>
        </mxCell>
        <mxCell id="peN7S1bACBPS1jwIUG3S-4" value="&lt;div&gt;&lt;span style=&quot;background-color: transparent; color: light-dark(rgb(0, 0, 0), rgb(255, 255, 255));&quot;&gt;&lt;b&gt;CHECK SANCTIONS LIST&lt;/b&gt;&lt;/span&gt;&lt;/div&gt;&lt;div&gt;&lt;span style=&quot;background-color: transparent; color: light-dark(rgb(0, 0, 0), rgb(255, 255, 255)); font-size: 10px;&quot;&gt;AML Compliance Check&lt;/span&gt;&lt;/div&gt;&lt;div&gt;&lt;span style=&quot;background-color: transparent; color: light-dark(rgb(0, 0, 0), rgb(255, 255, 255)); font-size: 10px;&quot;&gt;&lt;b&gt;Regulatory Screening&lt;/b&gt;&lt;/span&gt;&lt;/div&gt;" style="rounded=1;whiteSpace=wrap;html=1;absoluteArcSize=1;arcSize=14;strokeWidth=2;fillColor=#fff2cc;gradientColor=#ffd966;strokeColor=#d6b656;" parent="1" vertex="1">
          <mxGeometry x="678" y="779" width="165" height="100" as="geometry" />
        </mxCell>
        <mxCell id="ci-vi3iwN2OTbzFPUMdV-1" style="edgeStyle=orthogonalEdgeStyle;rounded=0;orthogonalLoop=1;jettySize=auto;html=1;exitX=0.5;exitY=1;exitDx=0;exitDy=0;" parent="1" source="-b2YdqmB82dIGwkGnbBE-1" edge="1">
          <mxGeometry relative="1" as="geometry">
            <mxPoint x="808" y="929" as="targetPoint" />
            <Array as="points">
              <mxPoint x="951" y="904" />
              <mxPoint x="808" y="904" />
            </Array>
          </mxGeometry>
        </mxCell>
        <mxCell id="ci-vi3iwN2OTbzFPUMdV-2" style="edgeStyle=orthogonalEdgeStyle;rounded=0;orthogonalLoop=1;jettySize=auto;html=1;" parent="1" source="-b2YdqmB82dIGwkGnbBE-1" edge="1">
          <mxGeometry relative="1" as="geometry">
            <mxPoint x="1028" y="929" as="targetPoint" />
          </mxGeometry>
        </mxCell>
        <mxCell id="-b2YdqmB82dIGwkGnbBE-1" value="&lt;div&gt;&lt;div&gt;&lt;span style=&quot;background-color: transparent; color: light-dark(rgb(0, 0, 0), rgb(255, 255, 255));&quot;&gt;&lt;b&gt;REPORT AGENT&lt;/b&gt;&lt;/span&gt;&lt;/div&gt;&lt;div&gt;&lt;span style=&quot;background-color: transparent; color: light-dark(rgb(0, 0, 0), rgb(255, 255, 255)); font-size: 10px;&quot;&gt;Historical SAR analysis&lt;/span&gt;&lt;/div&gt;&lt;div&gt;&lt;b style=&quot;background-color: transparent; color: light-dark(rgb(0, 0, 0), rgb(255, 255, 255)); font-size: 10px;&quot;&gt;Regulatory Screening&lt;/b&gt;&lt;/div&gt;&lt;/div&gt;" style="rounded=1;whiteSpace=wrap;html=1;absoluteArcSize=1;arcSize=14;strokeWidth=2;align=center;fillColor=#f9f7ed;strokeColor=#36393d;" parent="1" vertex="1">
          <mxGeometry x="868" y="779" width="165" height="100" as="geometry" />
        </mxCell>
        <mxCell id="aq9Wi_wOZQ09OlRGDj8Y-1" value="GPT-4-mini" style="rounded=1;whiteSpace=wrap;html=1;" parent="1" vertex="1">
          <mxGeometry x="878" y="854" width="70" height="20" as="geometry" />
        </mxCell>
        <mxCell id="ci-vi3iwN2OTbzFPUMdV-3" value="&lt;div&gt;&lt;b style=&quot;background-color: transparent; color: light-dark(rgb(0, 0, 0), rgb(255, 255, 255));&quot;&gt;FILE SEARCH&lt;/b&gt;&lt;/div&gt;&lt;div&gt;&lt;b style=&quot;background-color: transparent; color: light-dark(rgb(0, 0, 0), rgb(255, 255, 255)); font-size: 10px;&quot;&gt;Historical SAR files&lt;/b&gt;&lt;/div&gt;&lt;div&gt;&lt;b style=&quot;background-color: transparent; color: light-dark(rgb(0, 0, 0), rgb(255, 255, 255)); font-size: 10px;&quot;&gt;Enterprise Knowledge&lt;/b&gt;&lt;/div&gt;" style="rounded=1;whiteSpace=wrap;html=1;absoluteArcSize=1;arcSize=14;strokeWidth=2;strokeColor=light-dark(#d940f7, #ededed);" parent="1" vertex="1">
          <mxGeometry x="718" y="929" width="165" height="100" as="geometry" />
        </mxCell>
        <mxCell id="18LVfupm50ZDDe84IdDB-1" value="&lt;div&gt;&lt;b style=&quot;background-color: transparent; color: light-dark(rgb(0, 0, 0), rgb(255, 255, 255));&quot;&gt;CODE INTERPRETER&lt;/b&gt;&lt;/div&gt;&lt;div&gt;&lt;b style=&quot;background-color: transparent; color: light-dark(rgb(0, 0, 0), rgb(255, 255, 255)); font-size: 10px;&quot;&gt;Statistical analysis&lt;/b&gt;&lt;/div&gt;&lt;div&gt;&lt;b style=&quot;background-color: transparent; color: light-dark(rgb(0, 0, 0), rgb(255, 255, 255)); font-size: 10px;&quot;&gt;Pattern Computation&lt;/b&gt;&lt;/div&gt;" style="rounded=1;whiteSpace=wrap;html=1;absoluteArcSize=1;arcSize=14;strokeWidth=2;strokeColor=light-dark(#3b7bfc, #ededed);" parent="1" vertex="1">
          <mxGeometry x="948" y="929" width="165" height="100" as="geometry" />
        </mxCell>
        <mxCell id="rdsmS_tetdR9iGBarKxG-2" value="AI-APPROVE&lt;div&gt;82% Confidence&lt;/div&gt;" style="ellipse;whiteSpace=wrap;html=1;aspect=fixed;fillColor=#f5f5f5;gradientColor=#b3b3b3;strokeColor=#666666;" parent="1" vertex="1">
          <mxGeometry x="138" y="989" width="100" height="100" as="geometry" />
        </mxCell>
        <mxCell id="rdu9AneTHKd0LxcQRLFf-1" value="AI-INVESTIGATE&lt;div&gt;70% Confidence&lt;/div&gt;" style="ellipse;whiteSpace=wrap;html=1;aspect=fixed;fillColor=#f5f5f5;gradientColor=#b3b3b3;strokeColor=#666666;" parent="1" vertex="1">
          <mxGeometry x="265.5" y="1007" width="102.5" height="102.5" as="geometry" />
        </mxCell>
        <mxCell id="t0tcWZlc_9CMSNs0C148-2" style="edgeStyle=orthogonalEdgeStyle;rounded=0;orthogonalLoop=1;jettySize=auto;html=1;" parent="1" edge="1">
          <mxGeometry relative="1" as="geometry">
            <mxPoint x="315" y="1007" as="targetPoint" />
            <mxPoint x="315" y="950" as="sourcePoint" />
          </mxGeometry>
        </mxCell>
        <mxCell id="t0tcWZlc_9CMSNs0C148-3" value="AI-ESCALATE&lt;div&gt;85% Confidence&lt;/div&gt;" style="ellipse;whiteSpace=wrap;html=1;aspect=fixed;fillColor=#f5f5f5;gradientColor=#b3b3b3;strokeColor=#666666;" parent="1" vertex="1">
          <mxGeometry x="405.5" y="1005" width="100" height="100" as="geometry" />
        </mxCell>
        <mxCell id="0LBBUaoQF5_cExZpgBRw-1" style="edgeStyle=orthogonalEdgeStyle;rounded=0;orthogonalLoop=1;jettySize=auto;html=1;" parent="1" edge="1">
          <mxGeometry relative="1" as="geometry">
            <mxPoint x="455" y="1005" as="targetPoint" />
            <mxPoint x="455" y="948" as="sourcePoint" />
          </mxGeometry>
        </mxCell>
        <mxCell id="0LBBUaoQF5_cExZpgBRw-3" value="AI-BLOCK&lt;div&gt;88% Confidence&lt;/div&gt;" style="ellipse;whiteSpace=wrap;html=1;aspect=fixed;fillColor=#f5f5f5;gradientColor=#b3b3b3;strokeColor=#666666;" parent="1" vertex="1">
          <mxGeometry x="556" y="989" width="100" height="100" as="geometry" />
        </mxCell>
        <mxCell id="01yIto8odNf2lbmbbXM--1" value="" style="image;aspect=fixed;html=1;points=[];align=center;fontSize=12;image=img/lib/azure2/ai_machine_learning/AI_Studio.svg;" parent="1" vertex="1">
          <mxGeometry x="316" y="628" width="35.76" height="38" as="geometry" />
        </mxCell>
        <mxCell id="01yIto8odNf2lbmbbXM--3" value="" style="image;aspect=fixed;html=1;points=[];align=center;fontSize=12;image=img/lib/azure2/ai_machine_learning/AI_Studio.svg;" parent="1" vertex="1">
          <mxGeometry x="860" y="764" width="35.76" height="38" as="geometry" />
        </mxCell>
        <mxCell id="vMhv8-JPd0X2p5NNa91D-1" style="edgeStyle=orthogonalEdgeStyle;rounded=0;orthogonalLoop=1;jettySize=auto;html=1;entryX=0.419;entryY=0.021;entryDx=0;entryDy=0;entryPerimeter=0;" parent="1" target="MBH7ge44Bl-OyHVlxMLG-3" edge="1">
          <mxGeometry relative="1" as="geometry">
            <mxPoint x="388" y="209" as="targetPoint" />
            <mxPoint x="390.5" y="181" as="sourcePoint" />
            <Array as="points">
              <mxPoint x="387" y="181" />
            </Array>
          </mxGeometry>
        </mxCell>
        <mxCell id="nhes7fpAjblE8PE5C1TL-1" value="&lt;b&gt;AUTO-BLOCK&lt;/b&gt;&lt;div&gt;90% Confidence&lt;/div&gt;" style="ellipse;whiteSpace=wrap;html=1;aspect=fixed;fillColor=#f5f5f5;gradientColor=#b3b3b3;strokeColor=#666666;" parent="1" vertex="1">
          <mxGeometry x="538" y="479" width="100" height="100" as="geometry" />
        </mxCell>
        <mxCell id="JhYFiWYkrwmO2XUdPBP2-1" value="&lt;b&gt;AUTO-APPROVE&lt;/b&gt;&lt;div&gt;85% Confidence&lt;/div&gt;" style="ellipse;whiteSpace=wrap;html=1;aspect=fixed;fillColor=#f5f5f5;gradientColor=#b3b3b3;strokeColor=#666666;" parent="1" vertex="1">
          <mxGeometry x="158" y="479" width="100" height="100" as="geometry" />
        </mxCell>
        <mxCell id="69fqJUkcahqG50Eo7s9F-2" value="&amp;lt; 25" style="curved=1;endArrow=classic;html=1;rounded=0;exitX=0.5;exitY=1;exitDx=0;exitDy=0;exitPerimeter=0;entryX=0.5;entryY=0;entryDx=0;entryDy=0;" parent="1" target="JhYFiWYkrwmO2XUdPBP2-1" edge="1">
          <mxGeometry width="50" height="50" relative="1" as="geometry">
            <mxPoint x="405.5" y="479" as="sourcePoint" />
            <mxPoint x="188" y="479" as="targetPoint" />
            <Array as="points">
              <mxPoint x="208" y="459" />
            </Array>
          </mxGeometry>
        </mxCell>
        <mxCell id="69fqJUkcahqG50Eo7s9F-3" value="&lt;font style=&quot;font-size: 12px;&quot;&gt;&amp;nbsp;&amp;gt; 85&amp;nbsp;&lt;/font&gt;" style="curved=1;endArrow=classic;html=1;rounded=0;exitX=0;exitY=0;exitDx=0;exitDy=0;" parent="1" source="R8QV-5auwyjtB_2v4dsR-1" edge="1">
          <mxGeometry width="50" height="50" relative="1" as="geometry">
            <mxPoint x="398" y="479" as="sourcePoint" />
            <mxPoint x="578" y="479" as="targetPoint" />
            <Array as="points">
              <mxPoint x="558" y="459" />
            </Array>
          </mxGeometry>
        </mxCell>
        <mxCell id="Uu0hIavTiIOWuk6QEuIx-1" value="&amp;lt; 40" style="text;strokeColor=none;align=center;fillColor=none;html=1;verticalAlign=middle;whiteSpace=wrap;rounded=0;" parent="1" vertex="1">
          <mxGeometry x="178" y="957" width="60" height="30" as="geometry" />
        </mxCell>
        <mxCell id="Uu0hIavTiIOWuk6QEuIx-2" value="40-65" style="text;strokeColor=none;align=center;fillColor=none;html=1;verticalAlign=middle;whiteSpace=wrap;rounded=0;" parent="1" vertex="1">
          <mxGeometry x="307" y="959" width="60" height="30" as="geometry" />
        </mxCell>
        <mxCell id="Uu0hIavTiIOWuk6QEuIx-3" value="65-85" style="text;strokeColor=none;align=center;fillColor=none;html=1;verticalAlign=middle;whiteSpace=wrap;rounded=0;" parent="1" vertex="1">
          <mxGeometry x="445.5" y="959" width="60" height="30" as="geometry" />
        </mxCell>
        <mxCell id="CGHGrX43nPjWb_1mLnY9-1" value="&amp;gt; 85" style="text;strokeColor=none;align=center;fillColor=none;html=1;verticalAlign=middle;whiteSpace=wrap;rounded=0;" parent="1" vertex="1">
          <mxGeometry x="596" y="955" width="60" height="30" as="geometry" />
        </mxCell>
        <mxCell id="R8QV-5auwyjtB_2v4dsR-2" value="" style="curved=1;endArrow=classic;html=1;rounded=0;" parent="1" target="R8QV-5auwyjtB_2v4dsR-1" edge="1">
          <mxGeometry width="50" height="50" relative="1" as="geometry">
            <mxPoint x="398" y="479" as="sourcePoint" />
            <mxPoint x="588" y="489" as="targetPoint" />
            <Array as="points" />
          </mxGeometry>
        </mxCell>
        <mxCell id="3eGmHhcLQRDZda_nOn4Y-1" value="" style="shape=image;verticalLabelPosition=bottom;labelBackgroundColor=default;verticalAlign=top;aspect=fixed;imageAspect=0;image=data:image/png,iVBORw0KGgoAAAANSUhEUgAAABAAAAARCAYAAADUryzEAAAAAXNSR0IArs4c6QAAAIRlWElmTU0AKgAAAAgABQESAAMAAAABAAEAAAEaAAUAAAABAAAASgEbAAUAAAABAAAAUgEoAAMAAAABAAIAAIdpAAQAAAABAAAAWgAAAAAAAABIAAAAAQAAAEgAAAABAAOgAQADAAAAAQABAACgAgAEAAAAAQAAABCgAwAEAAAAAQAAABEAAAAA+g81QQAAAAlwSFlzAAALEwAACxMBAJqcGAAAAmBJREFUOBF1VM9LVFEU/s67b97MGzRsSMcYE0wlokFCbNnCddCyiAJ3QtsIhMyVGQnRH+CqIIj6J1y0L7CBFo5JajWToo4/5se7797buTPO8xnjWczc951z7v2+79z3COfE/qOxcXLEok0brWZ63q986VRK/4P7U/lhQuIFGdwHUStvOAgfDeTznneFtXhPtEH5QT6b8rw5Bqa5IBEviq2lAZbqQTCf/VAoW5y2717r9i6mn8LgCR/YFSs+d8l8jkB4E+xVX1Npcuyrn3PzJOCe29EhYRTC+u/wm1vdUrl6Wbl+TiDVL0BOpKpDmzXUoF5SqP1SrpYYaJ5qQqD6U6H+R8G/4iLZ60T+tXdh2mhsa9Q2Q+igjQKOUfIOPy5byCaO10JUViSCPRVV2bXFbC7WvGx7I76l2/lnwQFmVc2k251udysdHrL3JyF8qnoXsND/ufDSQlR5ePMWCWeRXZ20NIMdjaql2Wi3tP6dJJBmed6lE3kGzEDP0ObEjZ30YCKT6D51r2lUmY3aasnwB9jg7FmD5aE21Q2568oK9EFBkpdxkB4UED6fwHv5l12k+kTzeBKRUqgaM9xQCHY1MWHNUzAVVtLLgAWR7HPg83BEknCmsWGYUYjGXx3TZirisZN56/gkuXyCM5465jkzfb4ocLuI584j3lQ4KoZQR5GZxxrmldxTUxG3H0NDWSRSczzZaQab7wLfzmbYzWxwu+RhL0HW56+ur7fehVbq9Hd1ZGRYOMkFFngvuk08HkP0SenG7GixuHZazeLjD/H16sj1cUHU/B4oY2ZGi987fg/+AeRFDVTBEOLuAAAAAElFTkSuQmCC;" vertex="1" parent="1">
          <mxGeometry x="536" y="214" width="34.83" height="37" as="geometry" />
        </mxCell>
        <mxCell id="3eGmHhcLQRDZda_nOn4Y-3" value="" style="shape=image;verticalLabelPosition=bottom;labelBackgroundColor=default;verticalAlign=top;aspect=fixed;imageAspect=0;image=data:image/jpeg,/9j/4AAQSkZJRgABAQAASABIAAD/4QCMRXhpZgAATU0AKgAAAAgABQESAAMAAAABAAEAAAEaAAUAAAABAAAASgEbAAUAAAABAAAAUgEoAAMAAAABAAIAAIdpAAQAAAABAAAAWgAAAAAAAABIAAAAAQAAAEgAAAABAAOgAQADAAAAAQABAACgAgAEAAAAAQAAACWgAwAEAAAAAQAAACQAAAAA/+0AOFBob3Rvc2hvcCAzLjAAOEJJTQQEAAAAAAAAOEJJTQQlAAAAAAAQ1B2M2Y8AsgTpgAmY7PhCfv/AABEIACQAJQMBIgACEQEDEQH/xAAfAAABBQEBAQEBAQAAAAAAAAAAAQIDBAUGBwgJCgv/xAC1EAACAQMDAgQDBQUEBAAAAX0BAgMABBEFEiExQQYTUWEHInEUMoGRoQgjQrHBFVLR8CQzYnKCCQoWFxgZGiUmJygpKjQ1Njc4OTpDREVGR0hJSlNUVVZXWFlaY2RlZmdoaWpzdHV2d3h5eoOEhYaHiImKkpOUlZaXmJmaoqOkpaanqKmqsrO0tba3uLm6wsPExcbHyMnK0tPU1dbX2Nna4eLj5OXm5+jp6vHy8/T19vf4+fr/xAAfAQADAQEBAQEBAQEBAAAAAAAAAQIDBAUGBwgJCgv/xAC1EQACAQIEBAMEBwUEBAABAncAAQIDEQQFITEGEkFRB2FxEyIygQgUQpGhscEJIzNS8BVictEKFiQ04SXxFxgZGiYnKCkqNTY3ODk6Q0RFRkdISUpTVFVWV1hZWmNkZWZnaGlqc3R1dnd4eXqCg4SFhoeIiYqSk5SVlpeYmZqio6Slpqeoqaqys7S1tre4ubrCw8TFxsfIycrS09TV1tfY2dri4+Tl5ufo6ery8/T19vf4+fr/2wBDAAICAgICAgMCAgMFAwMDBQYFBQUFBggGBgYGBggKCAgICAgICgoKCgoKCgoMDAwMDAwODg4ODg8PDw8PDw8PDw//2wBDAQICAgQEBAcEBAcQCwkLEBAQEBAQEBAQEBAQEBAQEBAQEBAQEBAQEBAQEBAQEBAQEBAQEBAQEBAQEBAQEBAQEBD/3QAEAAP/2gAMAwEAAhEDEQA/AP35kkjhjaWVgiICzMxwABySSegFeen4hQaupTwJYS+JGPC3ETCHT89Mm7cFWUHqYVlI9CeK4fxle+F7a48W+I/iGsup6R4ce1WGxJLwM0sMbKPs+VjlkaVwFMmQDjBGM1d+FHxw0D4oXl5o1rptxpF/ZRiYQzmN1kgzt3I0TMPlJAZTjGRjIOaiVanGSg37z2R42Iz/AAdLF08BUrRjVqJuMW/eklu0vL/PsX9P1H4sW+palLcz6Lr8drLEkmnWYltbi2DwpIQJ5XkSR8sSFdYg6kNuTO2us0zx7oN9qEWi33m6Pqs+fLs79PIllIGSIiSUmx38pmx3rwH4+DxxeaTqkHge4luI4NSgGpQ6VHLHfRwm0UosjQ/vZQXIY+XzsKqQVDVL8EbW/wD+FdXek/GjH9m3+oCLTLfXm/fPGY48Jtuj5n+uDmNW+cdsLtxH1n997Lke17209PU8tcTS/tj+yfq9S3Jz+0t+73ty8383kfV1FeceDYH0rX/EXh+C5nmsLFrVrdLiV5zEJYssqvIWfbkZALHHbjivRMmt2j6xO5//0P2fl8L6P40vfHvhjXojLY381ojhWKOCLWJlZWHKsrAEHsRWD8O/ht4D+Fep6hL4eubvXtYleC0uSzxTTWscv7xVdIljWJCPnZmXLADk8CtrW/D/AIu07xLrOsWaf2z4f1yOEXFhby/Yr6CWJFjMkU2R5u5VA2+ZDt+YguSAOQ+LN2fiJ4B1TwR4Nlaz8RTmCaXSroGzuru2ilQzxr5u3zFeNSpZS0bfcdgrE1FWlG/teW7S07+h87m2Aw0ZPMnhlUr0oy5NFz7P3Yt7c22/U9N0q78cW2oazqusQWd5o0uZbOOxmaW5jEShPLw0SLKZCpfO4bCdg3gb6+Uvj18M/FXxE+IR1jw3bReI4E0+2tZbEzQLcaeZC8jJNDOyhEuFZWzyWKkMMKldp+y78OPGngaXXbnXNPOhaVerCsNifLG+dC2+fy4yVT5Sq54Z+4wik+2ap4w8Pa95ll4btrrxHcROoZ9MYxxLJC24I95uji+VvvJ5hPUMpzg8sqSxdDlqxcb7rqj5rEZVT4pyGNHNaE6Cq2coXtOLUrpXt5X1Wz2T25z4M6Bq/hWG78N6/di91HTLLSoJ5gzOGdLcghXcBmVfuhmG5gAW5Jr2+vP/AARoHimwv9c1/wAXXNu91rU8ckdtbAslpDEmxIjMVjMx6nd5aYyF+bG4+h7RXcz9Bw9JQgoR2R//0f38rG1zw7oXiazGn6/Yw38CsHVZUDFHHR0PVHHZlIYdiK2aKAaPOz8NdBu82us3F9q9gmNtne3Uk9tjrh0Y/vh7TFxXfW9vBaQR2trGsMMKhERAFVVUYAUDgADoBT1+834fyp9XNkQQUUUVBZ//2Q==;" vertex="1" parent="1">
          <mxGeometry x="310.75" y="765" width="42.65" height="41.5" as="geometry" />
        </mxCell>
        <mxCell id="3eGmHhcLQRDZda_nOn4Y-5" value="" style="shape=image;verticalLabelPosition=bottom;labelBackgroundColor=default;verticalAlign=top;aspect=fixed;imageAspect=0;image=data:image/png,iVBORw0KGgoAAAANSUhEUgAAAWoAAAH0CAYAAAAUtGfQAAAACXBIWXMAAAsSAAALEgHS3X78AAAQ2klEQVR4nO3dQZZTR5qG4as+Nbd3QPUKoFcANdYA1woMQ42KWkGnd4BHOSxYQeNBjhtWUGYFDSvoYgXqk3QkB0MqJaWkqy/if56hj4+tlI7ejPwj7r2L9Xo9AZDr33w2ANmEGiCcUAOEE2qAcEINEE6oAcIJNUA4oQYIJ9QA4YQaIJxQA4QTaoBwQg0QTqgBwgk1QDihBggn1ADhhBognFADhBNqgHBCDRBOqAHCCTVAOKEGCCfUAOGEGiCcUAOEE2qAcEINEE6oAcIJNUA4oQYIJ9QA4YQaIJxQA4QTaoBwQg0QTqgBwgk1QDihBggn1ADhhBognFADhBNqgHBCDRBOqAHCCTVAOKEGCCfUAOGEGiCcUAOEE2qAcEINEE6oAcIJNUA4oQYIJ9QA4YQaIJxQA4QTaoBwQg0QTqgBwgk1QDihBggn1ADhhBognFADhBNqgHBCDRBOqAHCCTVAOKEGCCfUAOGEGiCcUAOEE2qAcEINEE6oAcIJNUA4oQYIJ9QA4YQaIJxQA4QTaoBwQg0QTqgBwgk1QDihBggn1ADhhBognFADhBNqgHBCDRBOqAHCCTVAOKEGCCfUAOGEGiCcUAOEE2qAcEINEE6oAcIJNUA4oQYIJ9QA4YQaIJxQA4QTaoBwQg0QTqgBwgk1QDihBggn1ADhhBognFADhBNqgHBCDRBOqAHCCTVAuD/5gBjJYrX88zRNr6ZpulhfXr314TICK2pG82aapsfXsV6slj/6dBmBUDOMxWp5MU3Tw/bzPGgra+jeYr1e+xTp3mK1fDJN03/f8nM8X19eCTZdE2q610YcH6Zp+uGWn+XTNE1P1pdXv/uk6ZXRByN4tSHSU/vnVtR0Tajp2mK1fDFN09MtP8PDxWr50idNr4w+6NZitXw0TdM/93j9f11fXr3xidMboaZLbS79ezvdsavrefWj9eXVB586PTH6oFev9oz01ObVVtR0R6jpzo5z6U3Mq+mO0QdducdcehPzaroh1HTjnnPpTcyr6YbRBz25z1x6E/NquiHUdOHAufQm1/NqF8MQz+iDeHfcx+NY3A+EaEJNtC338TgW9wMhmtEH6d6eONLTzbza/atJJdTEavPjhzO9PvevJpZQE2mxWj6bpunnmV/b0/bwAYhiRk2cdlHLHCOPTVwMQxShJsqRL2q5L5uLRDH6IM3bM0d6unnYgM1FUgg1MWbePNzmoc1FUgg1Ec60ebjNU3faI4EZNWc3w5WHh3LlImcl1JzVYrX8c9s8PNcJj139h81FzsXog7Npm3VvOoj0tbftlwrMTqg5pzdBm4fbuMycsxFqzqJt0j3u7N2//qVic5HZmVEzu8Vq+dM0Tf/V8Tv/9/XllWAzG6FmVh1tHm5jc5HZGH0wt142D7cxr2Y2Qs1s2ly6l83DbdwWldkINbNoc+m/DfZuP23PcoSTMqPm5AaaS29iXs1JWVEzh1Hm0puYV3NSQs1JtSemjDKX3uSB89WcktEHJ9Oe1PLPQu+wJ8NwEkLNSYQ8qWVu10+GebS+vPpQ6GdmBkYfnMpFsUhPN0+GCXgdDEaoObpBj+Lt6rEjexyb0QdH1UYeHwY/5bGNEQhHZUXNsb0qHunJCIRjE2qOpo08nnpHPzMC4WiMPjiKoqc8tjEC4SisqDmWiqc8tjEC4SisqDlYB08RPzdPMecgVtQcgwjd7aV7gXAIoeYg7V4eRh53+8G9QDiE0Qf3VuD2pcf2l/Xl1duxfiTmYEXNIZyZ3o9VNfci1NxL20B87N3by0Nnq7kPoea+bCDez4WNRfYl1OzNBuJBbCyyN5uJ7MVNl47GcxbZmRU1+3op0kdhVc3OrKjZWTuO9z/esaNxXI+dWFGzDxuIx+X9ZCdCzU4cxzuJB4vV8tmAPxdHJtTs6sI7dRLeV7YSaraymj4pq2q2Emp2YdV3Wu6ux52Emju11Z7V9GldH3d0aTkbCTXbWE3P44VVNZsINRu12bRLxedxvao2q+ZWQs1drKbnZfzBrYSaWznpcRZOgHAroWYTq+nz8L7zHaHmO4vV8pHV9Nlcr6p/Kvqzs4FQcxuz0vPy/vMH7p7HH7hDXgz3q+YLK2q+ZTMrg1U1Xwg13xKIDD+7AIYbQs0X7WiYp7fk8EuTz4Sarxl7ZPF58JlQ81nbRHQkL4ujenwm1NzwZ3Ymq2qEmi8EIdNTm4oINVP789omYi6/RIsTaiYhiOfzKc6VicW1P6v/t/r70AFXKhZmRY1TBX2wqi5MqBHqPvicCjP6KMzYozvGH0VZUddmldYX44+ihLo2oe6Lz6soo4+ijD269e/ry6sP1d+Eaqyo63pS/Q3olFV1QUJdly98n3xuBQl1XSOvqH8NeA2n8ti9P+oR6oLaU8YfDPyT/yvgNZySsVUxQl2TL3rffH7FCHVNo3/R3wa8hlMypy5GqGuyIuvbg/ZEHooQ6mLafHr0e0+PPqO+9ijgNTAToa5n+NV0kfth+KuoEKGuxxd8DD7HQoS6nip/Mn8MeA2n9HDcH41vCXUhbQNq5PPTXxv+fhiL1dKqugihrsUG1Fh8nkUIdS0Vvtijjzy+JtRFCHUtFb7YlW4BKtRFCHUtvthjsaFYhFDXUmUjcSpwGfln7QImBifURTghMCyXkhcg1HW4h/GYrKgLEOo6qnyhS4w8vmJFXYBQ1+ELPSafawFCXUe1L3SVY3pCXYBQ1yHUY6p0kqcsoa7DF3pQHiIwPqEuoNhTqytdmXhDqAcn1DVUOsJVMdQMTqihf85SD06oGdL68qrSeWoXMw1OqGtw+Th0TKgBwgk1Qyk28rjhL6bBCTVAOKFmZJUey8XAhLqGqhdEOFPNEIS6BleuQceEmpEYdTAkoWYkRh0MSagBwgl1Df8q+nNXPFPNgIS6ht+rvwHQM6EGCCfUjMSogyEJNfTPaGtwQs3IqmyiVt0sLkOoa6i64rLSZAhCXYMVF3RMqBlJ1SsTbaIOTqhrqDICcAk5QxLqAtaXV0YfY/MLanBCXUfFO8uV+EtifXkl1IMT6jrKfZmL/CXxKeA1cGJCXYdV15gcQSxAqOsYPtRFn0DuF3ABQl2HldeYhLoAoa6j6smP0We4fgEXINRFFB0LTAVCZkVdgFDX4uGvg1lfXllRFyDUtYz8pa74S+hdwGtgBkJdy8ihrjgCMPYoQqhrcfOesRh7FCHUtVT8Yo/8M/vFW4RQF9Iuqa42yx32WKKNxDqEuh6rsDHYSCxEqOsZNdTVfgH5hVuIUNfjCz4Gn2MhQl1Mu3dxpTn1kDPqwlealiTUNVX6ko+44WY+XYxQ12Q11rc31d+AaoS6phG/6JWu0vOLthihLqidp34/2E9eJdQfnZ+uR6jrelX9DeiU1XRBQl1XlTnnaKtP8+mChLqodkxvtPHHdwZ7Evmn9eWVUBck1LUZf/RFpIsS6tpG+uJX2GAT6qKEurCRxh+DjThuY+xRmFBTYfwxwpPIjakKE2oqrNJGGIsIdWFCXVwbf/xW/X0I5yKX4oSaaYDV2gijjbu8zH1pzEGomdomVc+3Ph19tWnsUZxQc0MMMr0ucKKFLYSaGyOHuucVt7EHQs3/a5uKrwd9O3pdkb6zicgk1HzD+COLz4PPhJov2nP4enzM04irzusjeULNZ0LNt3qciY642WY2zRdCzR8McFTvNr2F/JOxB18Tam5zMdi70tto5KUjeXxNqPlOm42OtqruxSdjD74l1GzS06p6pNWn1TTfEWpu1dmqepRTH1bT3Eqouctos+p0VtPcSqjZqK2qR3gCTA8rbqtpNhJqtnnR+zvUySr1hdU0mwg1d+r4asWeuAqROwk1u3gW/i71vpmY/v5yZkLNVu3Oer+mvlOdjwzetb9aYCOhZlcXnT/yKvW1W02zlVCzk7Zq7fm4XuJ45Jf21wrcSajZ2fry6uUgx/USfHQcj10JNftK+1O913GM43jsTKjZS3s0VNLGYo8nPn5rt5OFnQg193Hh7nr39skGIvsSavbW/mTvLTYpm3YXRh7sS6i5l3b2N/Zs9S0SQv2ubcjCXoSaQxiB7M7Ig3sTau4tZATSy2biM2emuS+h5iBtBPLLGd/FHua9TnlwEKHmYOvLqwsXwmz00ciDQwk1x/JT+MUn57rx0TOnPDiUUHMUbf7a/UMGjuwXd8bjGISao2k3v3898zuaulp910ZCcDCh5thezDyvTjz18amNguAohJqjavPY9Hn1qT0xl+aYhJqja/PqtJMOc51hft5uXAVHI9ScRDs3fM7z1X8w08Umrz2kllMQak6mbabNvbl4Lu/Xl1fOS3MSQs2pnXpzMWHMcH1Ry5OA18GghJqTaptqT061uRiwaff5hIfNQ05JqDm5U8f6zJ7ZPOTUhJpZtJide4b77sj/vedutsQchJrZtKg9H+Qd/9UJD+Yi1Myqxe3vR/p/nmuUcn0Mz31NmI1QM7v2OKpjHNs7x2z4tWN4zE2oOYsWu97OWDsrzVkINWdzhlgfcnXie2elOReh5qxmjvV9Q/3ejZY4J6Hm7MLHICLN2Qk1Ee4Z61NvJoo0EYSaGDOsrH/c498VaWIs1uu1T4Moi9Xy+qz1zzu+pr/s8lzCxWr5qD3g9ocd/psiTRQrauLsubJ+0yK80Z6Rfi3SpLGiJtZitby+n/V/7vD6PrW4fjez3jfSzkmTSKiJtlgtr8P5jx1e43ex3jPSv7osnFRGH0Rr9wb56w739biO8dsW9n0j/VykSWZFTRf2XR23W6pu+3dvbvq/dTMSzkmo6cZitfyxxfrhEV7zezf9pxdCTXcWq+X13ff+dsDr/q1F2skOuiDUdOmAWDvZQXdsJtKr+86VD7mDHpyFUNMrYwvKEGqqccKD7gg1vTLCoAyhpkvryyuhpgyhphrnpumOUNOzj/u+dmen6ZFQ0zPjD0oQaip579OmR0JNz/ZdURt70CWhpmdGH5Qg1FTiYhe6JNT0zFE7ShBqerbvzNmohC4JNT0TakoQarrl6SxUIdRUIux0Sajp3c4Xsbh8nF4JNb3bNb6ffNL0Sqjp3a6hNvagW0JN7wSY4Qk1VbgqkW4JNb2zomZ4Qk3vdp1Ru9iFbgk1vds1wEJNt4Saru3xkFtnqOmWUFOCy83pmVAzgnc+RUYm1FQg5HTtTz4+BvByyzlpG4l0bbFer32CAMGMPgDCCTVAOKEGCCfUAOGEGiCcUAOEE2qAcEINEE6oAcIJNUA4oQYIJ9QA4YQaIJxQA4QTaoBwQg0QTqgBwgk1QDihBggn1ADhhBognFADhBNqgHBCDRBOqAHCCTVAOKEGCCfUAOGEGiCcUAOEE2qAcEINEE6oAcIJNUA4oQYIJ9QA4YQaIJxQA4QTaoBwQg0QTqgBwgk1QDihBggn1ADhhBognFADhBNqgHBCDRBOqAHCCTVAOKEGCCfUAOGEGiCcUAOEE2qAcEINEE6oAcIJNUA4oQYIJ9QA4YQaIJxQA4QTaoBwQg0QTqgBwgk1QDihBggn1ADhhBognFADhBNqgHBCDRBOqAHCCTVAOKEGCCfUAOGEGiCcUAOEE2qAcEINEE6oAcIJNUA4oQYIJ9QA4YQaIJxQA4QTaoBwQg0QTqgBwgk1QDihBggn1ADhhBognFADhBNqgHBCDRBOqAHCCTVAOKEGCCfUAOGEGiCcUAOEE2qAcEINEE6oAcIJNUA4oQYIJ9QA4YQaIJxQA4QTaoBwQg0QTqgBwgk1QDihBggn1ADhhBognFADhBNqgHBCDRBOqAGSTdP0f/Eg50GLPxvyAAAAAElFTkSuQmCC;clipPath=inset(23.33% 31.57% 24% 31.11%);" vertex="1" parent="1">
          <mxGeometry x="167" y="764" width="22.55" height="44" as="geometry" />
        </mxCell>
      </root>
    </mxGraphModel>
  </diagram>
</mxfile>
